G04 #@! TF.FileFunction,Copper,L2,Bot,Signal*
%FSLAX46Y46*%
G04 Gerber Fmt 4.6, Leading zero omitted, Abs format (unit mm)*
G04 Created by KiCad (PCBNEW 4.0.2-stable) date 6/3/2016 7:26:30 PM*
%MOMM*%
G01*
G04 APERTURE LIST*
%ADD10C,0.150000*%
%ADD11C,1.998980*%
%ADD12C,1.700000*%
%ADD13C,1.879600*%
%ADD14R,1.400000X1.400000*%
%ADD15C,1.400000*%
%ADD16C,0.300000*%
%ADD17C,0.125000*%
G04 APERTURE END LIST*
D10*
D11*
X6910000Y27830000D03*
X17070000Y27830000D03*
D12*
X10590000Y6275000D03*
X10590000Y13275000D03*
D13*
X2960000Y8995000D03*
X2960000Y6455000D03*
X2960000Y3915000D03*
X2960000Y11535000D03*
D11*
X17080000Y24980000D03*
X6920000Y24980000D03*
X17090000Y22150000D03*
X6930000Y22150000D03*
D14*
X2960000Y14460000D03*
D15*
X2960000Y19460000D03*
D14*
X3120000Y27830000D03*
D15*
X3120000Y22830000D03*
D16*
X2960000Y8995000D02*
X5055000Y8995000D01*
X14250000Y27830000D02*
X17070000Y27830000D01*
X13160000Y26740000D02*
X14250000Y27830000D01*
X13160000Y22590000D02*
X13160000Y26740000D01*
X7870000Y17300000D02*
X13160000Y22590000D01*
X7870000Y11810000D02*
X7870000Y17300000D01*
X5055000Y8995000D02*
X7870000Y11810000D01*
D17*
G36*
X6139503Y28985312D02*
X5756034Y28602513D01*
X5548247Y28102105D01*
X5547774Y27560272D01*
X5754688Y27059503D01*
X6137487Y26676034D01*
X6637895Y26468247D01*
X7179728Y26467774D01*
X7680497Y26674688D01*
X8063966Y27057487D01*
X8271753Y27557895D01*
X8272226Y28099728D01*
X8065312Y28600497D01*
X7682513Y28983966D01*
X7410296Y29097000D01*
X16569808Y29097000D01*
X16299503Y28985312D01*
X15916034Y28602513D01*
X15808067Y28342500D01*
X14250000Y28342500D01*
X14053875Y28303488D01*
X13887608Y28192392D01*
X12797608Y27102392D01*
X12686512Y26936125D01*
X12647500Y26740000D01*
X12647500Y22802284D01*
X7507608Y17662392D01*
X7396512Y17496125D01*
X7357500Y17300000D01*
X7357500Y12022284D01*
X4842716Y9507500D01*
X4157330Y9507500D01*
X4064680Y9731730D01*
X3698657Y10098393D01*
X3297025Y10265165D01*
X3696730Y10430320D01*
X4063393Y10796343D01*
X4262074Y11274820D01*
X4262526Y11792907D01*
X4064680Y12271730D01*
X3698657Y12638393D01*
X3220180Y12837074D01*
X2702093Y12837526D01*
X2223270Y12639680D01*
X1856607Y12273657D01*
X1657926Y11795180D01*
X1657474Y11277093D01*
X1855320Y10798270D01*
X2221343Y10431607D01*
X2622975Y10264835D01*
X2223270Y10099680D01*
X1856607Y9733657D01*
X1657926Y9255180D01*
X1657474Y8737093D01*
X1855320Y8258270D01*
X2221343Y7891607D01*
X2622975Y7724835D01*
X2223270Y7559680D01*
X1856607Y7193657D01*
X1657926Y6715180D01*
X1657474Y6197093D01*
X1855320Y5718270D01*
X2221343Y5351607D01*
X2699820Y5152926D01*
X3217907Y5152474D01*
X3696730Y5350320D01*
X4063393Y5716343D01*
X4195659Y6034877D01*
X9377290Y6034877D01*
X9561493Y5589071D01*
X9902277Y5247692D01*
X10347761Y5062711D01*
X10830123Y5062290D01*
X11275929Y5246493D01*
X11617308Y5587277D01*
X11802289Y6032761D01*
X11802710Y6515123D01*
X11618507Y6960929D01*
X11277723Y7302308D01*
X10832239Y7487289D01*
X10349877Y7487710D01*
X9904071Y7303507D01*
X9562692Y6962723D01*
X9377711Y6517239D01*
X9377290Y6034877D01*
X4195659Y6034877D01*
X4262074Y6194820D01*
X4262526Y6712907D01*
X4064680Y7191730D01*
X3698657Y7558393D01*
X3297025Y7725165D01*
X3696730Y7890320D01*
X4063393Y8256343D01*
X4157302Y8482500D01*
X5055000Y8482500D01*
X5251125Y8521512D01*
X5417392Y8632608D01*
X8232392Y11447608D01*
X8343488Y11613875D01*
X8382500Y11810000D01*
X8382500Y13034877D01*
X9377290Y13034877D01*
X9561493Y12589071D01*
X9902277Y12247692D01*
X10347761Y12062711D01*
X10830123Y12062290D01*
X10864143Y12076347D01*
X16357160Y12076347D01*
X16655303Y11354785D01*
X17206881Y10802243D01*
X17927922Y10502841D01*
X18708653Y10502160D01*
X19430215Y10800303D01*
X19982757Y11351881D01*
X20282159Y12072922D01*
X20282840Y12853653D01*
X19984697Y13575215D01*
X19433119Y14127757D01*
X18712078Y14427159D01*
X17931347Y14427840D01*
X17209785Y14129697D01*
X16657243Y13578119D01*
X16357841Y12857078D01*
X16357160Y12076347D01*
X10864143Y12076347D01*
X11275929Y12246493D01*
X11617308Y12587277D01*
X11802289Y13032761D01*
X11802710Y13515123D01*
X11618507Y13960929D01*
X11277723Y14302308D01*
X10832239Y14487289D01*
X10349877Y14487710D01*
X9904071Y14303507D01*
X9562692Y13962723D01*
X9377711Y13517239D01*
X9377290Y13034877D01*
X8382500Y13034877D01*
X8382500Y17087716D01*
X12584630Y21289846D01*
X16261666Y21289846D01*
X16372986Y21124836D01*
X16819879Y20928482D01*
X17307895Y20918094D01*
X17762739Y21095253D01*
X17807014Y21124836D01*
X17918334Y21289846D01*
X17090000Y22118180D01*
X16261666Y21289846D01*
X12584630Y21289846D01*
X13226889Y21932105D01*
X15858094Y21932105D01*
X16035253Y21477261D01*
X16064836Y21432986D01*
X16229846Y21321666D01*
X17058180Y22150000D01*
X17121820Y22150000D01*
X17950154Y21321666D01*
X18115164Y21432986D01*
X18311518Y21879879D01*
X18321906Y22367895D01*
X18144747Y22822739D01*
X18115164Y22867014D01*
X17950154Y22978334D01*
X17121820Y22150000D01*
X17058180Y22150000D01*
X16229846Y22978334D01*
X16064836Y22867014D01*
X15868482Y22420121D01*
X15858094Y21932105D01*
X13226889Y21932105D01*
X13522392Y22227608D01*
X13633488Y22393875D01*
X13672500Y22590000D01*
X13672500Y23010154D01*
X16261666Y23010154D01*
X17090000Y22181820D01*
X17918334Y23010154D01*
X17807014Y23175164D01*
X17360121Y23371518D01*
X16872105Y23381906D01*
X16417261Y23204747D01*
X16372986Y23175164D01*
X16261666Y23010154D01*
X13672500Y23010154D01*
X13672500Y24119846D01*
X16251666Y24119846D01*
X16362986Y23954836D01*
X16809879Y23758482D01*
X17297895Y23748094D01*
X17752739Y23925253D01*
X17797014Y23954836D01*
X17908334Y24119846D01*
X17080000Y24948180D01*
X16251666Y24119846D01*
X13672500Y24119846D01*
X13672500Y24762105D01*
X15848094Y24762105D01*
X16025253Y24307261D01*
X16054836Y24262986D01*
X16219846Y24151666D01*
X17048180Y24980000D01*
X17111820Y24980000D01*
X17940154Y24151666D01*
X18105164Y24262986D01*
X18301518Y24709879D01*
X18311906Y25197895D01*
X18134747Y25652739D01*
X18105164Y25697014D01*
X17940154Y25808334D01*
X17111820Y24980000D01*
X17048180Y24980000D01*
X16219846Y25808334D01*
X16054836Y25697014D01*
X15858482Y25250121D01*
X15848094Y24762105D01*
X13672500Y24762105D01*
X13672500Y25840154D01*
X16251666Y25840154D01*
X17080000Y25011820D01*
X17908334Y25840154D01*
X17797014Y26005164D01*
X17350121Y26201518D01*
X16862105Y26211906D01*
X16407261Y26034747D01*
X16362986Y26005164D01*
X16251666Y25840154D01*
X13672500Y25840154D01*
X13672500Y26527716D01*
X14462284Y27317500D01*
X15808086Y27317500D01*
X15914688Y27059503D01*
X16297487Y26676034D01*
X16797895Y26468247D01*
X17339728Y26467774D01*
X17840497Y26674688D01*
X18223966Y27057487D01*
X18431753Y27557895D01*
X18432226Y28099728D01*
X18225312Y28600497D01*
X17842513Y28983966D01*
X17570296Y29097000D01*
X20287000Y29097000D01*
X20287000Y703000D01*
X643000Y703000D01*
X643000Y3097888D01*
X2174708Y3097888D01*
X2278764Y2939080D01*
X2704089Y2752670D01*
X3168373Y2743214D01*
X3600934Y2912151D01*
X3641236Y2939080D01*
X3745292Y3097888D01*
X2960000Y3883180D01*
X2174708Y3097888D01*
X643000Y3097888D01*
X643000Y3706627D01*
X1788214Y3706627D01*
X1957151Y3274066D01*
X1984080Y3233764D01*
X2142888Y3129708D01*
X2928180Y3915000D01*
X2991820Y3915000D01*
X3777112Y3129708D01*
X3935920Y3233764D01*
X4122330Y3659089D01*
X4131786Y4123373D01*
X3962849Y4555934D01*
X3935920Y4596236D01*
X3777112Y4700292D01*
X2991820Y3915000D01*
X2928180Y3915000D01*
X2142888Y4700292D01*
X1984080Y4596236D01*
X1797670Y4170911D01*
X1788214Y3706627D01*
X643000Y3706627D01*
X643000Y4732112D01*
X2174708Y4732112D01*
X2960000Y3946820D01*
X3745292Y4732112D01*
X3641236Y4890920D01*
X3215911Y5077330D01*
X2751627Y5086786D01*
X2319066Y4917849D01*
X2278764Y4890920D01*
X2174708Y4732112D01*
X643000Y4732112D01*
X643000Y15160000D01*
X1890399Y15160000D01*
X1890399Y13760000D01*
X1915676Y13625666D01*
X1995067Y13502288D01*
X2116205Y13419518D01*
X2260000Y13390399D01*
X3660000Y13390399D01*
X3794334Y13415676D01*
X3917712Y13495067D01*
X4000482Y13616205D01*
X4029601Y13760000D01*
X4029601Y15160000D01*
X4004324Y15294334D01*
X3924933Y15417712D01*
X3803795Y15500482D01*
X3660000Y15529601D01*
X2260000Y15529601D01*
X2125666Y15504324D01*
X2002288Y15424933D01*
X1919518Y15303795D01*
X1890399Y15160000D01*
X643000Y15160000D01*
X643000Y19249583D01*
X1897316Y19249583D01*
X2058731Y18858928D01*
X2357356Y18559781D01*
X2747728Y18397684D01*
X3170417Y18397316D01*
X3561072Y18558731D01*
X3860219Y18857356D01*
X4022316Y19247728D01*
X4022684Y19670417D01*
X3861269Y20061072D01*
X3562644Y20360219D01*
X3172272Y20522316D01*
X2749583Y20522684D01*
X2358928Y20361269D01*
X2059781Y20062644D01*
X1897684Y19672272D01*
X1897316Y19249583D01*
X643000Y19249583D01*
X643000Y22619583D01*
X2057316Y22619583D01*
X2218731Y22228928D01*
X2517356Y21929781D01*
X2907728Y21767684D01*
X3330417Y21767316D01*
X3603792Y21880272D01*
X5567774Y21880272D01*
X5774688Y21379503D01*
X6157487Y20996034D01*
X6657895Y20788247D01*
X7199728Y20787774D01*
X7700497Y20994688D01*
X8083966Y21377487D01*
X8291753Y21877895D01*
X8292226Y22419728D01*
X8085312Y22920497D01*
X7702513Y23303966D01*
X7202105Y23511753D01*
X6660272Y23512226D01*
X6159503Y23305312D01*
X5776034Y22922513D01*
X5568247Y22422105D01*
X5567774Y21880272D01*
X3603792Y21880272D01*
X3721072Y21928731D01*
X4020219Y22227356D01*
X4182316Y22617728D01*
X4182684Y23040417D01*
X4021269Y23431072D01*
X3722644Y23730219D01*
X3332272Y23892316D01*
X2909583Y23892684D01*
X2518928Y23731269D01*
X2219781Y23432644D01*
X2057684Y23042272D01*
X2057316Y22619583D01*
X643000Y22619583D01*
X643000Y24710272D01*
X5557774Y24710272D01*
X5764688Y24209503D01*
X6147487Y23826034D01*
X6647895Y23618247D01*
X7189728Y23617774D01*
X7690497Y23824688D01*
X8073966Y24207487D01*
X8281753Y24707895D01*
X8282226Y25249728D01*
X8075312Y25750497D01*
X7692513Y26133966D01*
X7192105Y26341753D01*
X6650272Y26342226D01*
X6149503Y26135312D01*
X5766034Y25752513D01*
X5558247Y25252105D01*
X5557774Y24710272D01*
X643000Y24710272D01*
X643000Y28530000D01*
X2050399Y28530000D01*
X2050399Y27130000D01*
X2075676Y26995666D01*
X2155067Y26872288D01*
X2276205Y26789518D01*
X2420000Y26760399D01*
X3820000Y26760399D01*
X3954334Y26785676D01*
X4077712Y26865067D01*
X4160482Y26986205D01*
X4189601Y27130000D01*
X4189601Y28530000D01*
X4164324Y28664334D01*
X4084933Y28787712D01*
X3963795Y28870482D01*
X3820000Y28899601D01*
X2420000Y28899601D01*
X2285666Y28874324D01*
X2162288Y28794933D01*
X2079518Y28673795D01*
X2050399Y28530000D01*
X643000Y28530000D01*
X643000Y29097000D01*
X6409808Y29097000D01*
X6139503Y28985312D01*
X6139503Y28985312D01*
G37*
X6139503Y28985312D02*
X5756034Y28602513D01*
X5548247Y28102105D01*
X5547774Y27560272D01*
X5754688Y27059503D01*
X6137487Y26676034D01*
X6637895Y26468247D01*
X7179728Y26467774D01*
X7680497Y26674688D01*
X8063966Y27057487D01*
X8271753Y27557895D01*
X8272226Y28099728D01*
X8065312Y28600497D01*
X7682513Y28983966D01*
X7410296Y29097000D01*
X16569808Y29097000D01*
X16299503Y28985312D01*
X15916034Y28602513D01*
X15808067Y28342500D01*
X14250000Y28342500D01*
X14053875Y28303488D01*
X13887608Y28192392D01*
X12797608Y27102392D01*
X12686512Y26936125D01*
X12647500Y26740000D01*
X12647500Y22802284D01*
X7507608Y17662392D01*
X7396512Y17496125D01*
X7357500Y17300000D01*
X7357500Y12022284D01*
X4842716Y9507500D01*
X4157330Y9507500D01*
X4064680Y9731730D01*
X3698657Y10098393D01*
X3297025Y10265165D01*
X3696730Y10430320D01*
X4063393Y10796343D01*
X4262074Y11274820D01*
X4262526Y11792907D01*
X4064680Y12271730D01*
X3698657Y12638393D01*
X3220180Y12837074D01*
X2702093Y12837526D01*
X2223270Y12639680D01*
X1856607Y12273657D01*
X1657926Y11795180D01*
X1657474Y11277093D01*
X1855320Y10798270D01*
X2221343Y10431607D01*
X2622975Y10264835D01*
X2223270Y10099680D01*
X1856607Y9733657D01*
X1657926Y9255180D01*
X1657474Y8737093D01*
X1855320Y8258270D01*
X2221343Y7891607D01*
X2622975Y7724835D01*
X2223270Y7559680D01*
X1856607Y7193657D01*
X1657926Y6715180D01*
X1657474Y6197093D01*
X1855320Y5718270D01*
X2221343Y5351607D01*
X2699820Y5152926D01*
X3217907Y5152474D01*
X3696730Y5350320D01*
X4063393Y5716343D01*
X4195659Y6034877D01*
X9377290Y6034877D01*
X9561493Y5589071D01*
X9902277Y5247692D01*
X10347761Y5062711D01*
X10830123Y5062290D01*
X11275929Y5246493D01*
X11617308Y5587277D01*
X11802289Y6032761D01*
X11802710Y6515123D01*
X11618507Y6960929D01*
X11277723Y7302308D01*
X10832239Y7487289D01*
X10349877Y7487710D01*
X9904071Y7303507D01*
X9562692Y6962723D01*
X9377711Y6517239D01*
X9377290Y6034877D01*
X4195659Y6034877D01*
X4262074Y6194820D01*
X4262526Y6712907D01*
X4064680Y7191730D01*
X3698657Y7558393D01*
X3297025Y7725165D01*
X3696730Y7890320D01*
X4063393Y8256343D01*
X4157302Y8482500D01*
X5055000Y8482500D01*
X5251125Y8521512D01*
X5417392Y8632608D01*
X8232392Y11447608D01*
X8343488Y11613875D01*
X8382500Y11810000D01*
X8382500Y13034877D01*
X9377290Y13034877D01*
X9561493Y12589071D01*
X9902277Y12247692D01*
X10347761Y12062711D01*
X10830123Y12062290D01*
X10864143Y12076347D01*
X16357160Y12076347D01*
X16655303Y11354785D01*
X17206881Y10802243D01*
X17927922Y10502841D01*
X18708653Y10502160D01*
X19430215Y10800303D01*
X19982757Y11351881D01*
X20282159Y12072922D01*
X20282840Y12853653D01*
X19984697Y13575215D01*
X19433119Y14127757D01*
X18712078Y14427159D01*
X17931347Y14427840D01*
X17209785Y14129697D01*
X16657243Y13578119D01*
X16357841Y12857078D01*
X16357160Y12076347D01*
X10864143Y12076347D01*
X11275929Y12246493D01*
X11617308Y12587277D01*
X11802289Y13032761D01*
X11802710Y13515123D01*
X11618507Y13960929D01*
X11277723Y14302308D01*
X10832239Y14487289D01*
X10349877Y14487710D01*
X9904071Y14303507D01*
X9562692Y13962723D01*
X9377711Y13517239D01*
X9377290Y13034877D01*
X8382500Y13034877D01*
X8382500Y17087716D01*
X12584630Y21289846D01*
X16261666Y21289846D01*
X16372986Y21124836D01*
X16819879Y20928482D01*
X17307895Y20918094D01*
X17762739Y21095253D01*
X17807014Y21124836D01*
X17918334Y21289846D01*
X17090000Y22118180D01*
X16261666Y21289846D01*
X12584630Y21289846D01*
X13226889Y21932105D01*
X15858094Y21932105D01*
X16035253Y21477261D01*
X16064836Y21432986D01*
X16229846Y21321666D01*
X17058180Y22150000D01*
X17121820Y22150000D01*
X17950154Y21321666D01*
X18115164Y21432986D01*
X18311518Y21879879D01*
X18321906Y22367895D01*
X18144747Y22822739D01*
X18115164Y22867014D01*
X17950154Y22978334D01*
X17121820Y22150000D01*
X17058180Y22150000D01*
X16229846Y22978334D01*
X16064836Y22867014D01*
X15868482Y22420121D01*
X15858094Y21932105D01*
X13226889Y21932105D01*
X13522392Y22227608D01*
X13633488Y22393875D01*
X13672500Y22590000D01*
X13672500Y23010154D01*
X16261666Y23010154D01*
X17090000Y22181820D01*
X17918334Y23010154D01*
X17807014Y23175164D01*
X17360121Y23371518D01*
X16872105Y23381906D01*
X16417261Y23204747D01*
X16372986Y23175164D01*
X16261666Y23010154D01*
X13672500Y23010154D01*
X13672500Y24119846D01*
X16251666Y24119846D01*
X16362986Y23954836D01*
X16809879Y23758482D01*
X17297895Y23748094D01*
X17752739Y23925253D01*
X17797014Y23954836D01*
X17908334Y24119846D01*
X17080000Y24948180D01*
X16251666Y24119846D01*
X13672500Y24119846D01*
X13672500Y24762105D01*
X15848094Y24762105D01*
X16025253Y24307261D01*
X16054836Y24262986D01*
X16219846Y24151666D01*
X17048180Y24980000D01*
X17111820Y24980000D01*
X17940154Y24151666D01*
X18105164Y24262986D01*
X18301518Y24709879D01*
X18311906Y25197895D01*
X18134747Y25652739D01*
X18105164Y25697014D01*
X17940154Y25808334D01*
X17111820Y24980000D01*
X17048180Y24980000D01*
X16219846Y25808334D01*
X16054836Y25697014D01*
X15858482Y25250121D01*
X15848094Y24762105D01*
X13672500Y24762105D01*
X13672500Y25840154D01*
X16251666Y25840154D01*
X17080000Y25011820D01*
X17908334Y25840154D01*
X17797014Y26005164D01*
X17350121Y26201518D01*
X16862105Y26211906D01*
X16407261Y26034747D01*
X16362986Y26005164D01*
X16251666Y25840154D01*
X13672500Y25840154D01*
X13672500Y26527716D01*
X14462284Y27317500D01*
X15808086Y27317500D01*
X15914688Y27059503D01*
X16297487Y26676034D01*
X16797895Y26468247D01*
X17339728Y26467774D01*
X17840497Y26674688D01*
X18223966Y27057487D01*
X18431753Y27557895D01*
X18432226Y28099728D01*
X18225312Y28600497D01*
X17842513Y28983966D01*
X17570296Y29097000D01*
X20287000Y29097000D01*
X20287000Y703000D01*
X643000Y703000D01*
X643000Y3097888D01*
X2174708Y3097888D01*
X2278764Y2939080D01*
X2704089Y2752670D01*
X3168373Y2743214D01*
X3600934Y2912151D01*
X3641236Y2939080D01*
X3745292Y3097888D01*
X2960000Y3883180D01*
X2174708Y3097888D01*
X643000Y3097888D01*
X643000Y3706627D01*
X1788214Y3706627D01*
X1957151Y3274066D01*
X1984080Y3233764D01*
X2142888Y3129708D01*
X2928180Y3915000D01*
X2991820Y3915000D01*
X3777112Y3129708D01*
X3935920Y3233764D01*
X4122330Y3659089D01*
X4131786Y4123373D01*
X3962849Y4555934D01*
X3935920Y4596236D01*
X3777112Y4700292D01*
X2991820Y3915000D01*
X2928180Y3915000D01*
X2142888Y4700292D01*
X1984080Y4596236D01*
X1797670Y4170911D01*
X1788214Y3706627D01*
X643000Y3706627D01*
X643000Y4732112D01*
X2174708Y4732112D01*
X2960000Y3946820D01*
X3745292Y4732112D01*
X3641236Y4890920D01*
X3215911Y5077330D01*
X2751627Y5086786D01*
X2319066Y4917849D01*
X2278764Y4890920D01*
X2174708Y4732112D01*
X643000Y4732112D01*
X643000Y15160000D01*
X1890399Y15160000D01*
X1890399Y13760000D01*
X1915676Y13625666D01*
X1995067Y13502288D01*
X2116205Y13419518D01*
X2260000Y13390399D01*
X3660000Y13390399D01*
X3794334Y13415676D01*
X3917712Y13495067D01*
X4000482Y13616205D01*
X4029601Y13760000D01*
X4029601Y15160000D01*
X4004324Y15294334D01*
X3924933Y15417712D01*
X3803795Y15500482D01*
X3660000Y15529601D01*
X2260000Y15529601D01*
X2125666Y15504324D01*
X2002288Y15424933D01*
X1919518Y15303795D01*
X1890399Y15160000D01*
X643000Y15160000D01*
X643000Y19249583D01*
X1897316Y19249583D01*
X2058731Y18858928D01*
X2357356Y18559781D01*
X2747728Y18397684D01*
X3170417Y18397316D01*
X3561072Y18558731D01*
X3860219Y18857356D01*
X4022316Y19247728D01*
X4022684Y19670417D01*
X3861269Y20061072D01*
X3562644Y20360219D01*
X3172272Y20522316D01*
X2749583Y20522684D01*
X2358928Y20361269D01*
X2059781Y20062644D01*
X1897684Y19672272D01*
X1897316Y19249583D01*
X643000Y19249583D01*
X643000Y22619583D01*
X2057316Y22619583D01*
X2218731Y22228928D01*
X2517356Y21929781D01*
X2907728Y21767684D01*
X3330417Y21767316D01*
X3603792Y21880272D01*
X5567774Y21880272D01*
X5774688Y21379503D01*
X6157487Y20996034D01*
X6657895Y20788247D01*
X7199728Y20787774D01*
X7700497Y20994688D01*
X8083966Y21377487D01*
X8291753Y21877895D01*
X8292226Y22419728D01*
X8085312Y22920497D01*
X7702513Y23303966D01*
X7202105Y23511753D01*
X6660272Y23512226D01*
X6159503Y23305312D01*
X5776034Y22922513D01*
X5568247Y22422105D01*
X5567774Y21880272D01*
X3603792Y21880272D01*
X3721072Y21928731D01*
X4020219Y22227356D01*
X4182316Y22617728D01*
X4182684Y23040417D01*
X4021269Y23431072D01*
X3722644Y23730219D01*
X3332272Y23892316D01*
X2909583Y23892684D01*
X2518928Y23731269D01*
X2219781Y23432644D01*
X2057684Y23042272D01*
X2057316Y22619583D01*
X643000Y22619583D01*
X643000Y24710272D01*
X5557774Y24710272D01*
X5764688Y24209503D01*
X6147487Y23826034D01*
X6647895Y23618247D01*
X7189728Y23617774D01*
X7690497Y23824688D01*
X8073966Y24207487D01*
X8281753Y24707895D01*
X8282226Y25249728D01*
X8075312Y25750497D01*
X7692513Y26133966D01*
X7192105Y26341753D01*
X6650272Y26342226D01*
X6149503Y26135312D01*
X5766034Y25752513D01*
X5558247Y25252105D01*
X5557774Y24710272D01*
X643000Y24710272D01*
X643000Y28530000D01*
X2050399Y28530000D01*
X2050399Y27130000D01*
X2075676Y26995666D01*
X2155067Y26872288D01*
X2276205Y26789518D01*
X2420000Y26760399D01*
X3820000Y26760399D01*
X3954334Y26785676D01*
X4077712Y26865067D01*
X4160482Y26986205D01*
X4189601Y27130000D01*
X4189601Y28530000D01*
X4164324Y28664334D01*
X4084933Y28787712D01*
X3963795Y28870482D01*
X3820000Y28899601D01*
X2420000Y28899601D01*
X2285666Y28874324D01*
X2162288Y28794933D01*
X2079518Y28673795D01*
X2050399Y28530000D01*
X643000Y28530000D01*
X643000Y29097000D01*
X6409808Y29097000D01*
X6139503Y28985312D01*
M02*
