G04 #@! TF.FileFunction,Legend,Top*
%FSLAX46Y46*%
G04 Gerber Fmt 4.6, Leading zero omitted, Abs format (unit mm)*
G04 Created by KiCad (PCBNEW 4.0.2-stable) date 6/3/2016 7:26:30 PM*
%MOMM*%
G01*
G04 APERTURE LIST*
%ADD10C,0.150000*%
%ADD11C,0.381000*%
%ADD12C,0.203200*%
%ADD13C,2.248980*%
%ADD14R,3.050000X2.250000*%
%ADD15R,3.050000X2.450000*%
%ADD16R,3.050000X3.050000*%
%ADD17C,1.950000*%
%ADD18C,2.129600*%
%ADD19C,3.450000*%
%ADD20R,1.650000X1.650000*%
%ADD21C,1.650000*%
G04 APERTURE END LIST*
D10*
X9450000Y29100000D02*
X14530000Y29100000D01*
X14530000Y29100000D02*
X14530000Y26560000D01*
X14530000Y26560000D02*
X9450000Y26560000D01*
X9450000Y26560000D02*
X9450000Y29100000D01*
X9450000Y27830000D02*
X8180000Y27830000D01*
X14530000Y27830000D02*
X15800000Y27830000D01*
D11*
X14290000Y17225000D02*
X6890000Y17225000D01*
X6890000Y17225000D02*
X6890000Y-400000D01*
X6890000Y-400000D02*
X14290000Y-450000D01*
X14290000Y-450000D02*
X14290000Y17225000D01*
D12*
X4230000Y4550000D02*
X4230000Y3280000D01*
X4230000Y3280000D02*
X3595000Y2645000D01*
X2325000Y2645000D02*
X1690000Y3280000D01*
X3595000Y7725000D02*
X4230000Y7090000D01*
X4230000Y7090000D02*
X4230000Y5820000D01*
X4230000Y5820000D02*
X3595000Y5185000D01*
X2325000Y5185000D02*
X1690000Y5820000D01*
X1690000Y5820000D02*
X1690000Y7090000D01*
X1690000Y7090000D02*
X2325000Y7725000D01*
X4230000Y4550000D02*
X3595000Y5185000D01*
X2325000Y5185000D02*
X1690000Y4550000D01*
X1690000Y3280000D02*
X1690000Y4550000D01*
X4230000Y12170000D02*
X4230000Y10900000D01*
X4230000Y10900000D02*
X3595000Y10265000D01*
X2325000Y10265000D02*
X1690000Y10900000D01*
X3595000Y10265000D02*
X4230000Y9630000D01*
X4230000Y9630000D02*
X4230000Y8360000D01*
X4230000Y8360000D02*
X3595000Y7725000D01*
X2325000Y7725000D02*
X1690000Y8360000D01*
X1690000Y8360000D02*
X1690000Y9630000D01*
X1690000Y9630000D02*
X2325000Y10265000D01*
X3595000Y12805000D02*
X2325000Y12805000D01*
X4230000Y12170000D02*
X3595000Y12805000D01*
X2325000Y12805000D02*
X1690000Y12170000D01*
X1690000Y10900000D02*
X1690000Y12170000D01*
X3595000Y2645000D02*
X2325000Y2645000D01*
D10*
X14540000Y23710000D02*
X9460000Y23710000D01*
X9460000Y23710000D02*
X9460000Y26250000D01*
X9460000Y26250000D02*
X14540000Y26250000D01*
X14540000Y26250000D02*
X14540000Y23710000D01*
X14540000Y24980000D02*
X15810000Y24980000D01*
X9460000Y24980000D02*
X8190000Y24980000D01*
X14550000Y20880000D02*
X9470000Y20880000D01*
X9470000Y20880000D02*
X9470000Y23420000D01*
X9470000Y23420000D02*
X14550000Y23420000D01*
X14550000Y23420000D02*
X14550000Y20880000D01*
X14550000Y22150000D02*
X15820000Y22150000D01*
X9470000Y22150000D02*
X8200000Y22150000D01*
X710000Y13960000D02*
X710000Y19960000D01*
X5210000Y19960000D02*
X5210000Y13960000D01*
X5370000Y28330000D02*
X5370000Y22330000D01*
X870000Y22330000D02*
X870000Y28330000D01*
X7834490Y27830000D02*
G75*
G03X7834490Y27830000I-924490J0D01*
G01*
X17994490Y27830000D02*
G75*
G03X17994490Y27830000I-924490J0D01*
G01*
X11365000Y6275000D02*
G75*
G03X11365000Y6275000I-775000J0D01*
G01*
X11365000Y13275000D02*
G75*
G03X11365000Y13275000I-775000J0D01*
G01*
X18004490Y24980000D02*
G75*
G03X18004490Y24980000I-924490J0D01*
G01*
X7844490Y24980000D02*
G75*
G03X7844490Y24980000I-924490J0D01*
G01*
X18014490Y22150000D02*
G75*
G03X18014490Y22150000I-924490J0D01*
G01*
X7854490Y22150000D02*
G75*
G03X7854490Y22150000I-924490J0D01*
G01*
X19845000Y12465000D02*
G75*
G03X19845000Y12465000I-1525000J0D01*
G01*
X3585000Y19460000D02*
G75*
G03X3585000Y19460000I-625000J0D01*
G01*
X3745000Y22830000D02*
G75*
G03X3745000Y22830000I-625000J0D01*
G01*
X19263334Y27377619D02*
X18930000Y27853810D01*
X18691905Y27377619D02*
X18691905Y28377619D01*
X19072858Y28377619D01*
X19168096Y28330000D01*
X19215715Y28282381D01*
X19263334Y28187143D01*
X19263334Y28044286D01*
X19215715Y27949048D01*
X19168096Y27901429D01*
X19072858Y27853810D01*
X18691905Y27853810D01*
X20215715Y27377619D02*
X19644286Y27377619D01*
X19930000Y27377619D02*
X19930000Y28377619D01*
X19834762Y28234762D01*
X19739524Y28139524D01*
X19644286Y28091905D01*
X16696667Y2167619D02*
X16696667Y1453333D01*
X16649047Y1310476D01*
X16553809Y1215238D01*
X16410952Y1167619D01*
X16315714Y1167619D01*
X17696667Y1167619D02*
X17125238Y1167619D01*
X17410952Y1167619D02*
X17410952Y2167619D01*
X17315714Y2024762D01*
X17220476Y1929524D01*
X17125238Y1881905D01*
X2056667Y1667619D02*
X2056667Y953333D01*
X2009047Y810476D01*
X1913809Y715238D01*
X1770952Y667619D01*
X1675714Y667619D01*
X2532857Y667619D02*
X2532857Y1667619D01*
X2913810Y1667619D01*
X3009048Y1620000D01*
X3056667Y1572381D01*
X3104286Y1477143D01*
X3104286Y1334286D01*
X3056667Y1239048D01*
X3009048Y1191429D01*
X2913810Y1143810D01*
X2532857Y1143810D01*
X4056667Y667619D02*
X3485238Y667619D01*
X3770952Y667619D02*
X3770952Y1667619D01*
X3675714Y1524762D01*
X3580476Y1429524D01*
X3485238Y1381905D01*
X19203334Y24577619D02*
X18870000Y25053810D01*
X18631905Y24577619D02*
X18631905Y25577619D01*
X19012858Y25577619D01*
X19108096Y25530000D01*
X19155715Y25482381D01*
X19203334Y25387143D01*
X19203334Y25244286D01*
X19155715Y25149048D01*
X19108096Y25101429D01*
X19012858Y25053810D01*
X18631905Y25053810D01*
X19584286Y25482381D02*
X19631905Y25530000D01*
X19727143Y25577619D01*
X19965239Y25577619D01*
X20060477Y25530000D01*
X20108096Y25482381D01*
X20155715Y25387143D01*
X20155715Y25291905D01*
X20108096Y25149048D01*
X19536667Y24577619D01*
X20155715Y24577619D01*
X19263334Y21787619D02*
X18930000Y22263810D01*
X18691905Y21787619D02*
X18691905Y22787619D01*
X19072858Y22787619D01*
X19168096Y22740000D01*
X19215715Y22692381D01*
X19263334Y22597143D01*
X19263334Y22454286D01*
X19215715Y22359048D01*
X19168096Y22311429D01*
X19072858Y22263810D01*
X18691905Y22263810D01*
X19596667Y22787619D02*
X20215715Y22787619D01*
X19882381Y22406667D01*
X20025239Y22406667D01*
X20120477Y22359048D01*
X20168096Y22311429D01*
X20215715Y22216190D01*
X20215715Y21978095D01*
X20168096Y21882857D01*
X20120477Y21835238D01*
X20025239Y21787619D01*
X19739524Y21787619D01*
X19644286Y21835238D01*
X19596667Y21882857D01*
X3287143Y16923334D02*
X3334762Y16875715D01*
X3382381Y16732858D01*
X3382381Y16637620D01*
X3334762Y16494762D01*
X3239524Y16399524D01*
X3144286Y16351905D01*
X2953810Y16304286D01*
X2810952Y16304286D01*
X2620476Y16351905D01*
X2525238Y16399524D01*
X2430000Y16494762D01*
X2382381Y16637620D01*
X2382381Y16732858D01*
X2430000Y16875715D01*
X2477619Y16923334D01*
X3382381Y17875715D02*
X3382381Y17304286D01*
X3382381Y17590000D02*
X2382381Y17590000D01*
X2525238Y17494762D01*
X2620476Y17399524D01*
X2668095Y17304286D01*
X3477143Y24963334D02*
X3524762Y24915715D01*
X3572381Y24772858D01*
X3572381Y24677620D01*
X3524762Y24534762D01*
X3429524Y24439524D01*
X3334286Y24391905D01*
X3143810Y24344286D01*
X3000952Y24344286D01*
X2810476Y24391905D01*
X2715238Y24439524D01*
X2620000Y24534762D01*
X2572381Y24677620D01*
X2572381Y24772858D01*
X2620000Y24915715D01*
X2667619Y24963334D01*
X2667619Y25344286D02*
X2620000Y25391905D01*
X2572381Y25487143D01*
X2572381Y25725239D01*
X2620000Y25820477D01*
X2667619Y25868096D01*
X2762857Y25915715D01*
X2858095Y25915715D01*
X3000952Y25868096D01*
X3572381Y25296667D01*
X3572381Y25915715D01*
%LPC*%
D13*
X6910000Y27830000D03*
X17070000Y27830000D03*
D14*
X6990000Y4275000D03*
X6990000Y7075000D03*
D15*
X14190000Y5175000D03*
X14190000Y2375000D03*
D16*
X14190000Y14575000D03*
X9840000Y18675000D03*
D17*
X10590000Y6275000D03*
X10590000Y13275000D03*
D18*
X2960000Y8995000D03*
X2960000Y6455000D03*
X2960000Y3915000D03*
X2960000Y11535000D03*
D13*
X17080000Y24980000D03*
X6920000Y24980000D03*
X17090000Y22150000D03*
X6930000Y22150000D03*
D19*
X18320000Y12465000D03*
D20*
X2960000Y14460000D03*
D21*
X2960000Y19460000D03*
D20*
X3120000Y27830000D03*
D21*
X3120000Y22830000D03*
M02*
